<?xml version="1.0" standalone="no"?>
<!DOCTYPE svg PUBLIC "-//W3C//DTD SVG 20010904//EN"
 "http://www.w3.org/TR/2001/REC-SVG-20010904/DTD/svg10.dtd">
<svg version="1.0" xmlns="http://www.w3.org/2000/svg"
 width="200.000000pt" height="200.000000pt" viewBox="0 0 200.000000 200.000000"
 preserveAspectRatio="xMidYMid meet">

<g transform="translate(0.000000,200.000000) scale(0.100000,-0.100000)"
fill="#000000" stroke="none">
<path d="M845 1476 c-235 -54 -374 -188 -363 -350 5 -76 30 -128 88 -186 202
-201 658 -201 860 0 58 58 83 110 88 186 10 143 -101 268 -293 330 -99 32
-284 42 -380 20z m57 -193 c18 -15 27 -20 21 -13 -21 22 -15 40 12 40 21 0 25
-5 25 -31 0 -21 -4 -28 -12 -24 -7 4 1 -5 17 -19 17 -14 32 -26 35 -26 3 0 19
12 35 26 17 14 24 23 18 19 -9 -4 -13 2 -13 20 0 28 20 41 46 31 15 -6 15 -9
-2 -28 -14 -16 -10 -15 14 5 19 15 39 27 45 27 7 0 57 -35 112 -77 91 -71 97
-78 75 -84 -15 -4 -18 -7 -8 -8 9 -1 34 -11 55 -23 28 -17 33 -24 20 -26 -23
-5 -26 -102 -3 -102 8 0 18 -4 21 -10 4 -7 -137 -10 -414 -10 -274 0 -421 3
-421 10 0 6 9 10 20 10 17 0 20 7 20 49 0 39 -4 50 -17 53 -13 2 -8 9 20 26
21 12 46 22 55 23 10 1 7 4 -8 8 -22 6 -16 13 75 84 55 42 105 77 112 77 6 0
26 -12 45 -27z"/>
<path d="M779 1213 c-12 -16 -12 -17 2 -6 9 7 20 9 24 5 5 -4 5 -1 1 6 -9 16
-11 15 -27 -5z"/>
<path d="M906 1222 c-3 -5 1 -9 9 -9 8 0 12 4 9 9 -3 4 -7 8 -9 8 -2 0 -6 -4
-9 -8z"/>
<path d="M1076 1222 c-3 -5 1 -9 9 -9 8 0 12 4 9 9 -3 4 -7 8 -9 8 -2 0 -6 -4
-9 -8z"/>
<path d="M1194 1218 c-4 -7 -4 -10 1 -6 4 4 15 2 24 -5 14 -11 14 -10 2 6 -16
20 -18 21 -27 5z"/>
<path d="M770 1150 c0 -5 5 -10 10 -10 6 0 10 5 10 10 0 6 -4 10 -10 10 -5 0
-10 -4 -10 -10z"/>
<path d="M800 1150 c0 -5 5 -10 10 -10 6 0 10 5 10 10 0 6 -4 10 -10 10 -5 0
-10 -4 -10 -10z"/>
<path d="M890 1150 c0 -5 5 -10 10 -10 6 0 10 5 10 10 0 6 -4 10 -10 10 -5 0
-10 -4 -10 -10z"/>
<path d="M920 1150 c0 -5 5 -10 10 -10 6 0 10 5 10 10 0 6 -4 10 -10 10 -5 0
-10 -4 -10 -10z"/>
<path d="M1060 1150 c0 -5 5 -10 10 -10 6 0 10 5 10 10 0 6 -4 10 -10 10 -5 0
-10 -4 -10 -10z"/>
<path d="M1090 1150 c0 -5 5 -10 10 -10 6 0 10 5 10 10 0 6 -4 10 -10 10 -5 0
-10 -4 -10 -10z"/>
<path d="M1180 1150 c0 -5 5 -10 10 -10 6 0 10 5 10 10 0 6 -4 10 -10 10 -5 0
-10 -4 -10 -10z"/>
<path d="M1210 1150 c0 -5 5 -10 10 -10 6 0 10 5 10 10 0 6 -4 10 -10 10 -5 0
-10 -4 -10 -10z"/>
<path d="M678 1079 c-12 -7 -18 -22 -18 -49 l0 -40 55 0 55 0 0 40 c0 29 -5
42 -19 50 -25 13 -51 12 -73 -1z m32 -19 c0 -5 -9 -10 -20 -10 -11 0 -20 5
-20 10 0 6 9 10 20 10 11 0 20 -4 20 -10z m50 0 c0 -5 -9 -10 -20 -10 -11 0
-20 5 -20 10 0 6 9 10 20 10 11 0 20 -4 20 -10z"/>
<path d="M808 1079 c-12 -7 -18 -22 -18 -49 l0 -40 55 0 c54 0 55 0 55 29 0
16 -6 32 -12 34 -10 4 -10 8 0 15 28 20 -48 30 -80 11z m62 -19 c0 -5 -16 -10
-35 -10 -19 0 -35 5 -35 10 0 6 16 10 35 10 19 0 35 -4 35 -10z"/>
<path d="M1111 1081 c-11 -7 -11 -10 0 -15 11 -5 11 -7 2 -12 -7 -3 -13 -19
-13 -35 0 -29 1 -29 55 -29 l55 0 0 40 c0 29 -5 42 -19 50 -24 12 -61 13 -80
1z m89 -21 c0 -5 -16 -10 -35 -10 -19 0 -35 5 -35 10 0 6 16 10 35 10 19 0 35
-4 35 -10z"/>
<path d="M1248 1079 c-12 -7 -18 -22 -18 -49 l0 -40 55 0 55 0 0 40 c0 29 -5
42 -19 50 -25 13 -51 12 -73 -1z m32 -19 c0 -5 -9 -10 -20 -10 -11 0 -20 5
-20 10 0 6 9 10 20 10 11 0 20 -4 20 -10z m50 0 c0 -5 -9 -10 -20 -10 -11 0
-20 5 -20 10 0 6 9 10 20 10 11 0 20 -4 20 -10z"/>
<path d="M920 1030 c0 -33 3 -40 20 -40 17 0 20 7 20 40 0 33 -3 40 -20 40
-17 0 -20 -7 -20 -40z"/>
<path d="M980 1030 c0 -33 3 -40 20 -40 17 0 20 7 20 40 0 33 -3 40 -20 40
-17 0 -20 -7 -20 -40z"/>
<path d="M1040 1030 c0 -33 3 -40 20 -40 17 0 20 7 20 40 0 33 -3 40 -20 40
-17 0 -20 -7 -20 -40z"/>
<path d="M420 740 c-11 -7 -12 -10 -2 -10 10 0 13 -18 10 -75 -2 -46 1 -75 7
-75 6 0 9 26 7 62 -4 105 -5 109 -22 98z"/>
<path d="M855 741 c-3 -5 -1 -12 5 -16 5 -3 10 1 10 9 0 18 -6 21 -15 7z"/>
<path d="M1420 747 c-8 -8 1 -167 9 -167 4 0 6 14 3 30 -5 34 12 60 39 60 21
0 34 -37 24 -69 -4 -12 -2 -21 4 -21 13 0 14 69 2 89 -6 9 -19 12 -39 8 -30
-6 -31 -5 -34 34 -2 23 -5 39 -8 36z"/>
<path d="M198 729 c-30 -17 -22 -56 17 -81 24 -16 34 -29 33 -43 -4 -29 -43
-31 -62 -3 -16 22 -16 22 -16 1 0 -41 83 -42 96 -1 5 17 -2 29 -37 59 -43 37
-44 37 -25 58 21 23 20 25 -6 10z"/>
<path d="M236 722 c6 -4 14 -14 17 -22 4 -10 6 -8 6 8 1 15 -5 22 -16 22 -11
0 -14 -3 -7 -8z"/>
<path d="M495 720 c-3 -5 -1 -10 4 -10 6 0 11 5 11 10 0 6 -2 10 -4 10 -3 0
-8 -4 -11 -10z"/>
<path d="M985 655 c0 -51 4 -75 12 -75 8 0 10 11 6 35 -5 32 -4 35 19 35 23 0
48 -16 48 -31 0 -4 -8 -15 -17 -24 -16 -16 -15 -17 3 -13 22 4 31 43 14 64 -7
7 -25 14 -41 14 -26 0 -29 3 -29 35 0 19 -3 35 -7 35 -5 0 -8 -34 -8 -75z"/>
<path d="M1044 717 c13 -10 17 -20 12 -33 -5 -14 -4 -16 4 -8 17 17 8 48 -15
52 -20 4 -20 3 -1 -11z"/>
<path d="M1330 685 c-10 -12 -10 -15 0 -15 9 0 11 -10 6 -31 -6 -33 7 -69 26
-69 9 0 9 3 0 12 -7 7 -12 29 -12 50 0 29 4 38 18 39 13 0 14 2 2 6 -8 3 -18
10 -21 15 -3 5 -12 2 -19 -7z"/>
<path d="M861 638 c-1 -33 3 -58 9 -58 12 0 12 54 0 90 -6 19 -8 11 -9 -32z"/>
<path d="M307 673 c-12 -11 -8 -78 5 -91 34 -34 89 16 72 65 -5 15 -16 28 -24
31 -12 4 -13 2 -2 -9 17 -19 15 -78 -3 -85 -36 -14 -62 55 -33 84 7 7 8 12 2
12 -6 0 -14 -3 -17 -7z"/>
<path d="M494 664 c3 -9 6 -31 6 -50 0 -19 3 -34 8 -34 4 0 5 22 4 50 -2 27
-8 50 -14 50 -6 0 -7 -7 -4 -16z"/>
<path d="M572 630 c11 -27 24 -50 29 -50 4 0 0 19 -11 42 -10 23 -16 46 -14
50 3 4 -2 8 -10 8 -12 0 -12 -8 6 -50z"/>
<path d="M622 663 c1 -10 -2 -29 -6 -43 l-7 -25 14 24 14 24 11 -32 c10 -29
32 -43 32 -21 0 6 -4 10 -10 10 -5 0 -15 18 -21 40 -12 41 -29 54 -27 23z"/>
<path d="M693 668 c0 -7 -3 -24 -7 -38 -5 -17 -4 -20 2 -10 16 25 24 60 14 60
-5 0 -9 -6 -9 -12z"/>
<path d="M747 673 c-10 -9 -9 -23 1 -23 5 0 9 7 9 15 0 17 -1 18 -10 8z"/>
<path d="M787 669 c6 -8 10 -31 9 -51 -1 -24 4 -40 12 -43 21 -8 25 -6 14 8
-6 7 -12 30 -14 51 -2 24 -9 41 -18 44 -12 4 -13 2 -3 -9z"/>
<path d="M1121 664 c6 -8 9 -30 7 -49 -2 -19 0 -35 4 -35 4 0 8 17 8 38 0 21
4 42 9 48 6 5 1 10 -15 10 -20 2 -23 -1 -13 -12z"/>
<path d="M1210 654 c-23 -61 42 -111 76 -59 19 30 11 75 -16 83 -12 4 -13 2
-2 -9 17 -19 15 -78 -3 -85 -27 -11 -47 16 -43 58 4 45 1 48 -12 12z"/>
<path d="M1556 664 c-3 -9 -6 -29 -6 -45 0 -36 36 -58 66 -40 16 10 15 10 -8
5 -20 -4 -29 -1 -37 14 -16 30 -14 32 24 32 19 0 35 4 35 9 0 19 -12 41 -23
41 -7 0 -7 -4 1 -12 19 -19 14 -28 -18 -28 -32 0 -37 9 -18 28 8 8 8 12 1 12
-6 0 -14 -7 -17 -16z"/>
<path d="M1670 665 c7 -8 10 -31 8 -50 -2 -19 0 -35 4 -35 4 0 8 17 8 38 0 21
4 42 10 48 6 6 1 10 -16 12 -22 2 -25 0 -14 -13z"/>
<path d="M1763 663 c-4 -11 3 -23 20 -37 15 -12 27 -28 27 -36 0 -11 2 -12 13
-1 10 10 5 18 -22 40 -20 16 -31 33 -27 39 4 7 5 12 1 12 -3 0 -8 -7 -12 -17z"/>
<path d="M752 621 c-17 -11 -12 -43 8 -49 13 -5 13 -3 0 12 -13 16 -12 20 5
32 20 15 9 19 -13 5z"/>
<path d="M1761 594 c0 -11 3 -14 6 -6 3 7 2 16 -1 19 -3 4 -6 -2 -5 -13z"/>
</g>
</svg>
